# xmcd
#
# Track frame offsets:
#	150
#	17963
#	40388
#	50521
#	68278
#	84591
#	101766
#	116898
#	142827
#	162534
#	183759
#	200091
#	214116
#	228846
#	249307
#	273045
#
# Disc length: 4114 seconds
#
# Revision: 1
# Processed by: cddbd v1.5.2PL0 Copyright (c) Steve Scherf et al.
# Submitted via: audiograbber 1.83.01
#
DISCID=da101010
DTITLE=Più Bestial che Blues - Altri 16
DYEAR=2008
DGENRE=Blues
TTITLE0=Route 66
TTITLE1=I Don't Need no Doctor
TTITLE2=Come on Let's Go
TTITLE3=Let's Work Together
TTITLE4=You Really Got A Hold On Me
TTITLE5=Lonely Avenue
TTITLE6=Messin' with The Kid
TTITLE7=I Think You Know
TTITLE8=The Weight
TTITLE9=Baby Blue
TTITLE10=Dream
TTITLE11=I Saw Her Standing There
TTITLE12=No Particular Place To Go
TTITLE13=Old Time Rock'n Roll
TTITLE14=Suspicious Monds
TTITLE15=Bring It On Home To Me
EXTD=
EXTT0=
EXTT1=
EXTT2=
EXTT3=
EXTT4=
EXTT5=
EXTT6=
EXTT7=
EXTT8=
EXTT9=
EXTT10=
EXTT11=
EXTT12=
EXTT13=
EXTT14=
EXTT15=
PLAYORDER=
